<?xml version="1.0" encoding="iso-8859-1"?>
<!-- Generator: Adobe Illustrator 16.0.0, SVG Export Plug-In . SVG Version: 6.00 Build 0)  -->
<!DOCTYPE svg PUBLIC "-//W3C//DTD SVG 1.1//EN" "http://www.w3.org/Graphics/SVG/1.1/DTD/svg11.dtd">
<svg version="1.1" xmlns="http://www.w3.org/2000/svg" xmlns:xlink="http://www.w3.org/1999/xlink" x="0px" y="0px" width="14400px"
	 height="14400px" viewBox="0 0 14400 14400" style="enable-background:new 0 0 14400 14400;" xml:space="preserve">
<g id="Layer_1" style="display:none;">
	
		<rect x="6534.859" y="6799.5" style="display:inline;fill:#AA7311;stroke:#000000;stroke-miterlimit:10;" width="1325.641" height="814.36"/>
</g>
<g id="Layer_2" style="display:none;">
	<path style="display:inline;fill:#D0920A;" d="M6523.32,7199.5c0,0,589.744-51.794,692.309-127.436s185.896-212.82,226.923-212.82
		s121.796-47.437,182.052-52.564s106.41,25.641,139.743,47.436s64.103,39.743,101.282,51.282s53.846,56.41,53.846,56.41
		l-65.384,233.334l-1311.54,11.538L6523.32,7199.5z"/>
</g>
<g id="Layer_5">
</g>
<g id="Layer_6">
</g>
<g id="Layer_4">
	<path style="fill:#222222;" d="M6625.5,7444.63c-21-20.13-80.667-56.129-80.667-56.129"/>
	<path style="fill:#222222;" d="M6623.5,7444.63c-21-20.13-80.667-56.129-80.667-56.129"/>
	<path style="fill:#222222;" d="M6622.5,7444.63c-21-20.13-80.667-56.129-80.667-56.129"/>
</g>
<g id="Layer_3">
	<path style="fill:#494949;" d="M6477.833,7067.833"/>
	<path style="fill:#9B8D27;" d="M6673.462,7292.5c0,0,1.654-22.001,7.719-22.667s11.579,5.606,14.335,9.137
		c2.756,3.53,3.308,13.53,3.308,13.53h13.784c0,0-0.551,6.001,0,18.667s1.103,60.667-4.411,86
		c-5.513,25.333-9.924,35.333-9.924,35.333s-15.437,4.667-17.643,0c-2.206-4.667-7.72-54.667-9.649-88.667
		s-2.481-50.666-2.481-50.666L6673.462,7292.5z"/>
	<g>
		<linearGradient id="SVGID_1_" gradientUnits="userSpaceOnUse" x1="6583.8501" y1="7557.5791" x2="6641.6274" y2="7398.8369">
			<stop  offset="0.5888" style="stop-color:#29D1E2"/>
			<stop  offset="0.9297" style="stop-color:#FFFFFF"/>
		</linearGradient>
		<path style="fill:url(#SVGID_1_);" d="M6471.111,7482.741c56-27.002,80.652-31.002,86.005-56.002s19.329-88.998,25.662-80.998
			s-3.667,19.619,13.333,24.309s20,25.689,34,20.689s30-24.379,37-20.689s11.667,7.689,10.333,11.689s22.863,11.486,23.628,5
			s11.127,4,12.583,12s-3.456,8.314,0,15.158c3.456,6.842,16.441,13.838,21.668,11.842s31.788-5,32.788,1s-7,16.357-5,19.68
			c2,3.32,5,1.854,0,17.588c-5,15.732-148.333,69.83-148.333,69.83l-165.667-5.023L6471.111,7482.741z"/>
		<path style="fill:#222222;" d="M6790.988,7476.739c0,0,9-210.999,26-237.999s14-42,26-59s19-12,19-12s3,3,11,16s10,18,10,18
			s4-31.372,14-34.687c10-3.313,19,10.687,22,16.687s8,18,8,18s17-37.373,25-35.187s16,15.187,17,22.187s5,20,5,20s23,45,20,108.001
			c-3,62.998,0.27,238.998,0.27,238.998l-158.27,12"/>
		<path style="fill:#222222;" d="M6937.988,7473.663c0,0,9-211,26-238s14-42,26-59s19-12,19-12s3,3,11,16s10,18,10,18
			s4-31.371,14-34.686s19,10.686,22,16.686s8,18,8,18s17-37.373,25-35.186c8,2.186,16,15.186,17,22.186s5,20,5,20s23,45,20,108.001
			c-3,62.999,0.27,238.999,0.27,238.999l-158.27,12"/>
		<path style="fill:#222222;" d="M7089.988,7476.739c0,0,9-211,26-238s14-42,26-59s19-12,19-12s3,3,11,16c8,13,10,18,10,18
			s4-31.371,14-34.686s19,10.686,22,16.686s8,18,8,18s17-37.373,25-35.186c8,2.186,16,15.186,17,22.186s5,20,5,20s23,45,20,108.002
			c-3,62.998,0.27,238.998,0.27,238.998l-158.269,12"/>
		<path style="fill:#222222;" d="M7233.987,7476.739c0,0,9-210.999,26-237.999s14-42,26-59s19-12,19-12s3,3,11,16s10,18,10,18
			s4-31.372,14-34.687c10-3.313,19,10.687,22,16.687s8,18,8,18s17-37.373,25-35.187s16,15.187,17,22.187s5,20,5,20s23,45,20,108.001
			c-3,62.998,0.27,238.998,0.27,238.998l-158.27,12"/>
		<path style="fill:#222222;" d="M7376.987,7473.663c0,0,9-211,26-238s14-42,26-59s19-12,19-12s3,3,11,16s10,18,10,18
			s4-31.372,14-34.686c10-3.314,19,10.686,22,16.686s8,18,8,18s17-37.373,25-35.187s16,15.187,17,22.187s5,20,5,20s23,45,20,108
			s0.27,239,0.27,239l-158.27,12"/>
		<path style="fill:#222222;" d="M7531.987,7464.739c0,0,9-210.999,26-237.999s14-42,26-59s19-12,19-12s3,3,11,16s10,18,10,18
			s4-31.372,14-34.687c10-3.313,19,10.687,22,16.687s8,18,8,18s17-37.373,25-35.187s16,15.187,17,22.187s5,20,5,20s23,45,20,108
			c-3,62.999,0.27,238.999,0.27,238.999l-158.27,12"/>
		<path style="fill:#222222;" d="M7665.987,7464.739c0,0,9-210.999,26-237.999s14-42,26-59s19-12,19-12s3,3,11,16s10,18,10,18
			s4-31.372,14-34.687c10-3.313,19,10.687,22,16.687s8,18,8,18s17-37.373,25-35.187s16,15.187,17,22.187s5,20,5,20s23,45,20,108
			c-3,62.999,0.27,238.999,0.27,238.999l-158.27,12"/>
		<path style="fill:#222222;" d="M7804.987,7464.739c0,0,9-210.999,26-237.999s14-42,26-59s19-12,19-12s3,3,11,16s10,18,10,18
			s4-31.372,14-34.687c10-3.313,19,10.687,22,16.687s8,18,8,18s17-37.373,25-35.187s16,15.187,17,22.187s5,20,5,20s23,45,20,108
			c-3,62.999,0.27,238.999,0.27,238.999l-158.27,12"/>
		<path style="fill:#4C4038;" d="M6538.766,7497.22c0,0,52.096-34.857,79.807-47.57c27.71-12.711,41.37-15.543,58.095-12.691
			c16.724,2.848,69.538,17.086,82.741,18.99c13.204,1.902,28.167,2.141,42.251,10.635c14.083,8.492,34.329,56.945,34.329,56.945
			s-110.908,10.602-168.123,13.883s-147.877,0-147.877,0"/>
		<path style="fill:#222222;" d="M6566.413,7486.872l57.575-22.865c0,0,91,0.131,133,11.432s104,68.301,104,71.301s31,65,31,65
			l-202-9c0,0-22-43.74-43-63.869c-21-20.131-79.667-56.129-79.667-56.129"/>
		<g>
			
				<line style="fill:none;stroke:#563309;stroke-width:8;stroke-miterlimit:10;" x1="6576.655" y1="7091.407" x2="6671.321" y2="7487.407"/>
			<path style="fill:#A0A0A0;" d="M6574.097,7097.851l7.547-1.091l-3.237-15.544c0,0,5.126-0.165,6.088-8.522
				s-10.76-46.667-18.024-53.286c-7.265-6.617-12.658-9.481-12.658-9.481c-3.22,54.275-4.232,14.288-0.078,63.755
				c0.889,10.579,12.5,9.477,12.5,9.477L6574.097,7097.851z"/>
		</g>
		<path style="fill:#494949;" d="M6642.244,7085.024c0,0,29.487,0,34.615,8.975s6.411,21.795,10.257,24.359
			c3.846,2.563,3.846,2.563,3.846,2.563s1.282,7.692,0,12.821c-1.282,5.127-12.821,7.691-12.821,7.691l-11.253-19.23v7.692
			l12.536,23.077c0,0-0.77,5.101-1.436,8.434s-7.333,8.666-7.333,8.666l-22.667-33.333c0,0,2-7.05,4-9.191
			s-0.667-10.809-0.667-10.809s-8.154,2.001-9.077,6.667s0,8.666,0,8.666l15.744,28.667l-7.333,1.333l-12-27.333l-4.667-1.333
			c0,0-3.333,3.333,0,5.333s21.333,34.667,21.333,34.667s-12-8-15.333-14s-24-32.667-22-50.667s13.077-23.716,18.667-23.716
			S6642.244,7085.024,6642.244,7085.024z"/>
		<path style="fill:#FCFFE9;" d="M6669.321,7251.418l-60.667,22c0,0,30.667,47.335,56.667,64.667
			c26,17.334,91.667,12.338,91.667,12.338l-5.667-93.672"/>
		<polyline style="fill:#6B431F;" points="6723.532,7281.74 6776.988,7334.741 6810.988,7339.741 6810.988,7321.741 
			6749.988,7264.74 		"/>
		<circle style="fill:#354739;" cx="6718.427" cy="7214.679" r="79.561"/>
		<path style="fill:#9B8D27;" d="M6594.157,7304.301c0,0-2.084,7.681,0,14.083c2.084,6.402-1.042,33.93,5.21,80.021
			c6.253,46.094,5.211,48.014,5.211,48.014h11.985c0,0,18.759-83.213,14.591-100.182c-4.169-16.969-14.591-27.213-14.591-27.213
			s-8.337-14.399-16.154-20.323s-10.422-4.964-10.422-4.964L6594.157,7304.301z"/>
		<path style="fill:#9B8D27;" d="M6605.321,7456.075c0,0,10.667,0,14.667,3.332c4,3.334,10,14,10,14s-7,2-28,9.334
			s-40,3.332-34.667,0c5.333-3.334,23.759-26.666,30.879-26.666S6605.321,7456.075,6605.321,7456.075z"/>
		<path style="fill:#9B8D27;" d="M6691.532,7538.741c4.667-1.334,3.734-6,14.867-4.666c11.133,1.332,17.133,12.666,17.133,12.666
			s-0.667,10.666-6.667,18.666s-14,28.666-19.333,19.334c-5.333-9.334-6-22.666-6-32.666S6691.532,7538.741,6691.532,7538.741z"/>
	</g>
</g>
</svg>
