<?xml version="1.0" encoding="utf-8"?>
<!-- Generator: Adobe Illustrator 16.0.0, SVG Export Plug-In . SVG Version: 6.00 Build 0)  -->
<!DOCTYPE svg PUBLIC "-//W3C//DTD SVG 1.1//EN" "http://www.w3.org/Graphics/SVG/1.1/DTD/svg11.dtd">
<svg version="1.1" id="Layer_1" xmlns="http://www.w3.org/2000/svg" xmlns:xlink="http://www.w3.org/1999/xlink" x="0px" y="0px"
	 width="188.322px" height="347.458px" viewBox="0 0 188.322 347.458" enable-background="new 0 0 188.322 347.458"
	 xml:space="preserve">
<path fill="#222222" d="M-14.948,324.341c0,0,9-210.999,26-237.999s14-42,26-59s19-12,19-12s3,3,11,16s10,18,10,18
	s4-31.372,14-34.687c10-3.313,19,10.687,22,16.687s8,18,8,18s17-37.373,25-35.187s16,15.187,17,22.187s5,20,5,20s23,45,20,108.001
	c-3,62.998,0.27,238.998,0.27,238.998l-158.27,12"/>
</svg>
