<?xml version="1.0" encoding="iso-8859-1"?>
<!-- Generator: Adobe Illustrator 16.0.0, SVG Export Plug-In . SVG Version: 6.00 Build 0)  -->
<!DOCTYPE svg PUBLIC "-//W3C//DTD SVG 1.1//EN" "http://www.w3.org/Graphics/SVG/1.1/DTD/svg11.dtd">
<svg version="1.1" xmlns="http://www.w3.org/2000/svg" xmlns:xlink="http://www.w3.org/1999/xlink" x="0px" y="0px" width="14400px"
	 height="14400px" viewBox="0 0 14400 14400" style="enable-background:new 0 0 14400 14400;" xml:space="preserve">
<g id="Layer_1">
</g>
<g id="Layer_2" style="display:none;">
	
		<rect x="6588.5" y="6842.5" style="display:inline;fill:#E0C9A2;stroke:#000000;stroke-miterlimit:10;" width="1259" height="834"/>
</g>
<g id="Layer_3" style="display:none;">
	<path style="fill:#FFF9EE;" d="M7166.5,6783.5h680l38,884c0,0-1329-1-1327-5s-12-204-12-204l610-663L7166.5,6783.5z"/>
	<polygon style="fill:#D9F2FF;" points="6496.5,7512.5 6514.5,7720.5 7948.5,7746.5 7894.5,6742.5 7270.5,6746.5 	"/>
	<polygon style="fill:#7EB6CE;" points="6460.5,7608.5 7518.5,6702.5 8012.5,6724.5 8036.5,7816.5 6484.5,7774.5 	"/>
	<polygon style="fill:#216E89;" points="6438.5,7774.5 7708.5,6676.5 8234.5,6690.5 8152.5,7902.5 6444.5,7848.5 	"/>
	<polygon style="fill:#0B2751;" points="6650.5,7920.5 7886.5,6596.5 8322.5,6646.5 8218.5,8146.5 	"/>
</g>
<g id="Layer_4" style="display:none;">
	<path style="display:inline;fill:#057391;" d="M6424.5,6966.678c0,0,58,50,168-4s210-110,276-96s104,44,126,80s234,116,428,70
		s378-102,440-98s-36,228-36,228l-1338-10"/>
</g>
<g id="Layer_5" style="display:none;">
	<linearGradient id="SVGID_1_" gradientUnits="userSpaceOnUse" x1="7038.5967" y1="7598.291" x2="7071.1001" y2="7226.7783">
		<stop  offset="0.5686" style="stop-color:#00B8FF"/>
		<stop  offset="1" style="stop-color:#F2F2F2"/>
	</linearGradient>
	<path style="display:inline;fill:url(#SVGID_1_);" d="M6537.5,7398.5c0,0,71-24,164-13s176,58,306,50s184-34,218-96s8-70-5-102
		s-59-81-27-77s71,3,80-17s13-49,50-49s57,16,65,20s20-9,27-13s52-3,67,8s16,30,28,33s39,7,46,11s13,10,6,20s-25,27-12,24s14-9,20-8
		s15,5,5,14s-17,17-10,18s9-4,15,0s11,20,5,34s-197,350-197,350l-857,4L6537.5,7398.5z"/>
	<path style="display:inline;fill:#332C27;" d="M7277.5,7612.5c0,0,49-102,51-151s20-71,32-65s14-8,16-20s12-92,29-93s14-27,53-39
		s125-3,146,2s147,76,175,84s64,16,66,36s10,25,17,38s0,176,0,176l-8,79l-591,25L7277.5,7612.5z"/>
</g>
<g id="soldier">
	<path style="fill:#604A24;" d="M6686.617,6919.105c0,0-12.174-10.93-23.168-16.499s-26.807,0-26.807,0l-19.021-2.475
		c0,0,26.999-21.095,59.997-20.56s51.97,12.401,51.97,12.401l-26.421,27.132H6686.617z"/>
</g>
<g id="Layer_8">
	<g>
		<g id="r1s5">
			<path style="fill:#0A0A0A;" d="M7257.532,6732.843c0,0-1.009,0.014-2.804,0.133c-12.867,0.854-66.109,7.15-77.595,53.005
				c-13.088,52.251-13.088,63.765-13.088,63.765s0.935,9.742,36.459,32.768c35.525,23.027,44.874,23.027,44.874,23.027l4.675-78.821
				c0,0-3.74,0.886-16.827-0.885c-13.089-1.771-19.634-11.513-19.634-11.513s8.414-7.085,19.634-7.085
				c11.218,0,18.696,4.429,22.437,8.856c3.739,4.429,0,57.566,0,57.566s4.675,1.771,7.479,2.657
				c2.803,0.886,7.479-2.657,7.479-2.657l-3.739-58.452c0,0,6.543-8.856,10.283-8.856c3.739,0,8.413,3.543,8.413,3.543
				s-2.804,3.542-6.545,5.313c-3.738,1.772-7.479,2.872-7.479,2.872l2.806,82.148c0,0,34.591-36.311,35.526-46.052
				c0.933-9.742,2.804-98.304-26.178-111.589c0,0-10.283-8.103-19.632-8.856C7254.729,6732.977,7257.532,6732.843,7257.532,6732.843
				z"/>
			<path style="fill:#070603;" d="M7262.547,7203.285c0,0,7.762-18.884,12.701-24.035c4.939-5.152,19.547-6.01,19.547-6.01
				l-5.435,25.754c0,0,3.108,5.15,5.435,18.027c2.327,12.879,3.738,8.586-4.023,51.508c-7.762,42.926-23.285,103.877-23.285,103.877
				s-11.29,5.148-16.229,9.441s-15.523,10.303-15.523,10.303s-5.646-87.564,0-127.914c5.645-40.346,4.939-53.223,4.939-53.223
				L7262.547,7203.285z"/>
			<path style="fill:#1E190F;" d="M7205.769,7217.021c0,0,7.762-18.884,12.701-24.035c4.94-5.152,19.548-6.01,19.548-6.01
				l-5.435,25.753c0,0,3.108,5.152,5.435,18.027c2.325,12.877,3.737,8.584-4.024,51.508s-23.285,103.875-23.285,103.875
				s-11.289,5.15-16.229,9.443c-4.939,4.291-15.523,10.303-15.523,10.303s-5.645-87.566,0-127.914
				c5.646-40.346,4.939-53.225,4.939-53.225L7205.769,7217.021z"/>
			<path style="fill:#918C87;" d="M7178.22,7032.879l-25.334,113.188c0,0,31.056,33.479,95.616,24.711
				c64.562-8.768,91.531-35.07,91.531-35.07l-48.218-108.409"/>
			<circle style="fill:#4C361B;" cx="7238.049" cy="6983.659" r="108.311"/>
		</g>
		<g id="r1s4_1_">
			<path style="fill:#161616;" d="M7131.737,6738.942c0,0-1.047,0.014-2.91,0.138c-13.356,0.887-68.62,7.422-80.542,55.018
				c-13.585,54.236-13.585,66.187-13.585,66.187s0.97,10.112,37.844,34.012c36.875,23.901,46.578,23.901,46.578,23.901l4.852-81.815
				c0,0-3.881,0.919-17.466-0.919c-13.586-1.838-20.378-11.95-20.378-11.95s8.733-7.354,20.378-7.354
				c11.644,0,19.407,4.597,23.289,9.193c3.881,4.597,0,59.752,0,59.752s4.852,1.838,7.764,2.758
				c2.909,0.919,7.762-2.758,7.762-2.758l-3.881-60.671c0,0,6.792-9.192,10.674-9.192c3.881,0,8.732,3.677,8.732,3.677
				s-2.91,3.676-6.792,5.515s-7.765,2.98-7.765,2.98l2.913,85.269c0,0,35.903-37.689,36.874-47.801
				c0.97-10.112,2.911-102.038-27.171-115.827c0,0-10.675-8.411-20.377-9.193
				C7128.827,6739.081,7131.737,6738.942,7131.737,6738.942z"/>
			<path style="fill:#19140B;" d="M7136.941,7227.252c0,0,8.057-19.604,13.184-24.949c5.127-5.347,20.29-6.238,20.29-6.238
				l-5.641,26.732c0,0,3.226,5.346,5.641,18.713s3.88,8.912-4.177,53.463c-8.057,44.557-24.17,107.822-24.17,107.822
				s-11.719,5.346-16.845,9.801c-5.127,4.455-16.113,10.693-16.113,10.693s-5.859-90.889,0-132.771
				c5.859-41.879,5.126-55.244,5.126-55.244L7136.941,7227.252z"/>
			<path style="fill:#2D2515;" d="M7078.007,7241.51c0,0,8.057-19.604,13.184-24.949c5.127-5.348,20.29-6.238,20.29-6.238
				l-5.641,26.732c0,0,3.227,5.348,5.641,18.713s3.88,8.91-4.177,53.463c-8.057,44.555-24.17,107.82-24.17,107.82
				s-11.718,5.348-16.846,9.803c-5.126,4.455-16.113,10.693-16.113,10.693s-5.859-90.891,0-132.771
				c5.86-41.879,5.127-55.246,5.127-55.246L7078.007,7241.51z"/>
			<path style="fill:#AAA5A0;" d="M7049.412,7050.374l-26.296,117.486c0,0,32.235,34.75,99.248,25.648
				c67.014-9.1,95.007-36.402,95.007-36.402l-50.048-112.524"/>
			<circle style="fill:#5B421F;" cx="7111.513" cy="6999.285" r="112.425"/>
		</g>
		<g id="r1s3_1_">
			<path style="fill:#282828;" d="M6993.847,6741.322c0,0-1.056,0.014-2.936,0.139c-13.473,0.895-69.223,7.488-81.249,55.501
				c-13.704,54.713-13.704,66.768-13.704,66.768s0.979,10.201,38.176,34.311c37.198,24.111,46.987,24.111,46.987,24.111
				l4.895-82.534c0,0-3.916,0.928-17.62-0.927c-13.705-1.854-20.557-12.055-20.557-12.055s8.81-7.419,20.557-7.419
				c11.747,0,19.578,4.637,23.494,9.274c3.915,4.637,0,60.276,0,60.276s4.895,1.855,7.831,2.782
				c2.936,0.928,7.831-2.782,7.831-2.782l-3.915-61.204c0,0,6.852-9.273,10.768-9.273c3.915,0,8.81,3.709,8.81,3.709
				s-2.937,3.708-6.852,5.563c-3.916,1.855-7.833,3.007-7.833,3.007l2.938,86.018c0,0,36.219-38.021,37.198-48.221
				s2.937-102.935-27.409-116.845c0,0-10.768-8.485-20.556-9.273C6990.911,6741.461,6993.847,6741.322,6993.847,6741.322z"/>
			<path style="fill:#2D2412;" d="M6999.097,7233.922c0,0,8.128-19.775,13.299-25.168c5.172-5.395,20.468-6.293,20.468-6.293
				l-5.691,26.967c0,0,3.255,5.393,5.691,18.877c2.437,13.484,3.914,8.99-4.213,53.934c-8.127,44.947-24.383,108.768-24.383,108.768
				s-11.821,5.395-16.993,9.889s-16.255,10.787-16.255,10.787s-5.911-91.688,0-133.938c5.911-42.248,5.172-55.73,5.172-55.73
				L6999.097,7233.922z"/>
			<path style="fill:#42371E;" d="M6939.646,7248.305c0,0,8.127-19.775,13.299-25.168c5.172-5.395,20.468-6.293,20.468-6.293
				l-5.691,26.967c0,0,3.255,5.395,5.691,18.877s3.914,8.988-4.213,53.934s-24.382,108.768-24.382,108.768
				s-11.821,5.395-16.994,9.889c-5.171,4.494-16.255,10.787-16.255,10.787s-5.911-91.689,0-133.938
				c5.911-42.248,5.172-55.732,5.172-55.732L6939.646,7248.305z"/>
			<path style="fill:#C9C1B9;" d="M6910.799,7055.489l-26.527,118.52c0,0,32.518,35.054,100.12,25.873
				c67.603-9.18,95.841-36.723,95.841-36.723l-50.488-113.513"/>
			<circle style="fill:#725526;" cx="6973.446" cy="7003.951" r="113.412"/>
		</g>
		<g id="r1s2">
			<path style="fill:#383838;" d="M6855.457,6746.754c0,0-1.105,0.015-3.072,0.146c-14.098,0.936-72.43,7.835-85.014,58.073
				c-14.339,57.248-14.339,69.862-14.339,69.862s1.024,10.673,39.945,35.901c38.922,25.229,49.164,25.229,49.164,25.229
				l5.122-86.358c0,0-4.097,0.971-18.437-0.97c-14.34-1.94-21.509-12.614-21.509-12.614s9.218-7.763,21.509-7.763
				s20.485,4.852,24.583,9.704c4.096,4.852,0,63.069,0,63.069s5.121,1.941,8.194,2.911c3.072,0.971,8.193-2.911,8.193-2.911
				l-4.097-64.04c0,0,7.17-9.703,11.267-9.703c4.097,0,9.218,3.881,9.218,3.881s-3.072,3.88-7.169,5.821s-8.196,3.146-8.196,3.146
				l3.075,90.003c0,0,37.897-39.782,38.921-50.456s3.073-107.704-28.679-122.259c0,0-11.267-8.878-21.509-9.703
				C6852.384,6746.9,6855.457,6746.754,6855.457,6746.754z"/>
			<path style="fill:#44371B;" d="M6860.95,7262.178c0,0,8.504-20.691,13.916-26.334c5.412-5.645,21.417-6.584,21.417-6.584
				l-5.955,28.217c0,0,3.406,5.643,5.955,19.752c2.549,14.107,4.096,9.404-4.408,56.432
				c-8.504,47.029-25.512,113.809-25.512,113.809s-12.369,5.643-17.781,10.346s-17.008,11.287-17.008,11.287
				s-6.185-95.938,0-140.143c6.185-44.207,5.412-58.314,5.412-58.314L6860.95,7262.178z"/>
			<path style="fill:#594B27;" d="M6798.743,7277.229c0,0,8.504-20.693,13.916-26.336c5.412-5.645,21.417-6.584,21.417-6.584
				l-5.955,28.217c0,0,3.406,5.643,5.955,19.752c2.549,14.107,4.096,9.404-4.408,56.432
				c-8.504,47.029-25.512,113.809-25.512,113.809s-12.369,5.643-17.781,10.346c-5.411,4.703-17.008,11.287-17.008,11.287
				s-6.185-95.938,0-140.143c6.185-44.207,5.412-58.314,5.412-58.314L6798.743,7277.229z"/>
			<path style="fill:#E2D8CC;" d="M6768.561,7075.479l-27.757,124.01c0,0,34.025,36.679,104.759,27.072
				c70.735-9.605,100.282-38.425,100.282-38.425l-52.827-118.77"/>
			<circle style="fill:#87662A;" cx="6834.109" cy="7021.553" r="118.667"/>
		</g>
		<g id="r1s1">
			<path style="fill:#444444;" d="M6704.09,6745.245c0,0-1.175,0.016-3.266,0.155c-14.989,0.995-77.008,8.33-90.387,61.743
				c-15.246,60.866-15.246,74.277-15.246,74.277s1.089,11.348,42.47,38.17c41.381,26.823,52.271,26.823,52.271,26.823l5.445-91.815
				c0,0-4.355,1.032-19.602-1.032c-15.246-2.063-22.869-13.411-22.869-13.411s9.801-8.253,22.869-8.253s21.78,5.158,26.136,10.316
				c4.355,5.158,0,67.056,0,67.056s5.445,2.063,8.712,3.095c3.267,1.032,8.711-3.095,8.711-3.095l-4.356-68.087
				c0,0,7.623-10.316,11.979-10.316c4.355,0,9.8,4.126,9.8,4.126s-3.267,4.126-7.623,6.189c-4.356,2.063-8.714,3.345-8.714,3.345
				l3.269,95.692c0,0,40.292-42.297,41.381-53.645c1.089-11.348,3.267-114.511-30.492-129.985c0,0-11.979-9.439-22.869-10.316
				S6704.09,6745.245,6704.09,6745.245z"/>
			<path style="fill:#544520;" d="M6709.931,7293.244c0,0,9.042-22,14.795-28c5.754-6,22.77-7,22.77-7l-6.331,30
				c0,0,3.621,6,6.331,21c2.71,15,4.354,10-4.687,60s-27.125,121-27.125,121s-13.151,6-18.905,11c-5.753,5-18.083,12-18.083,12
				s-6.575-102,0-149c6.576-47,5.754-62,5.754-62L6709.931,7293.244z"/>
			<path style="fill:#705F2F;" d="M6643.793,7309.244c0,0,9.042-22,14.795-28c5.754-6,22.77-7,22.77-7l-6.331,30
				c0,0,3.621,6,6.331,21c2.71,15,4.354,10-4.687,60s-27.125,121-27.125,121s-13.151,6-18.905,11c-5.753,5-18.083,12-18.083,12
				s-6.575-102,0-149c6.576-47,5.754-62,5.754-62L6643.793,7309.244z"/>
			<path style="fill:#FFEFD7;" d="M6611.703,7094.745l-29.511,131.847c0,0,36.175,38.996,111.38,28.783s106.62-40.854,106.62-40.854
				l-56.166-126.277"/>
			<circle style="fill:#9E792E;" cx="6681.395" cy="7037.41" r="126.167"/>
		</g>
		<path style="fill:#FFF4E9;" d="M6746.895,6743.749c0,0,27.654-25.979,51.654-33.979s61.485-13.999,61.485-13.999
			s-20.818-37.335-44.818-54.001s-98-43.333-161.333-22.667s-96.667,59.333-111.333,90.667s-6.667,86,0,103.333
			s20.667,42.667,20.667,42.667l16.333,13.333c0,0,11-64.667,24.333-86.667s33.787-29.035,33.787-29.035l104.879-6.648"/>
		<g id="r1s5_1_">
			<path style="fill:#0A0A0A;" d="M7828.199,6791.023c0,0-1.009,0.014-2.804,0.133c-12.867,0.854-66.109,7.15-77.595,53.005
				c-13.088,52.251-13.088,63.765-13.088,63.765s0.935,9.742,36.459,32.768c35.525,23.027,44.874,23.027,44.874,23.027l4.675-78.821
				c0,0-3.74,0.886-16.827-0.885c-13.089-1.771-19.634-11.513-19.634-11.513s8.414-7.085,19.634-7.085
				c11.218,0,18.696,4.429,22.437,8.856c3.739,4.429,0,57.566,0,57.566s4.675,1.771,7.479,2.657
				c2.803,0.886,7.479-2.657,7.479-2.657l-3.739-58.452c0,0,6.543-8.856,10.283-8.856c3.739,0,8.413,3.543,8.413,3.543
				s-2.804,3.542-6.545,5.313c-3.738,1.772-7.479,2.872-7.479,2.872l2.806,82.148c0,0,34.591-36.311,35.526-46.052
				c0.933-9.742,2.804-98.304-26.178-111.589c0,0-10.283-8.103-19.632-8.856C7825.396,6791.157,7828.199,6791.023,7828.199,6791.023
				z"/>
			<path style="fill:#070603;" d="M7833.214,7261.465c0,0,7.762-18.885,12.701-24.035c4.939-5.152,19.547-6.01,19.547-6.01
				l-5.435,25.754c0,0,3.108,5.15,5.435,18.027c2.327,12.879,3.738,8.586-4.023,51.508c-7.762,42.926-23.285,103.877-23.285,103.877
				s-11.29,5.148-16.229,9.441s-15.523,10.303-15.523,10.303s-5.646-87.564,0-127.914c5.645-40.346,4.939-53.223,4.939-53.223
				L7833.214,7261.465z"/>
			<path style="fill:#1E190F;" d="M7776.436,7275.201c0,0,7.762-18.885,12.701-24.035c4.94-5.152,19.548-6.01,19.548-6.01
				l-5.435,25.754c0,0,3.108,5.152,5.435,18.027c2.325,12.877,3.737,8.584-4.024,51.508s-23.285,103.875-23.285,103.875
				s-11.289,5.15-16.229,9.443c-4.939,4.291-15.523,10.303-15.523,10.303s-5.645-87.566,0-127.914
				c5.646-40.346,4.939-53.225,4.939-53.225L7776.436,7275.201z"/>
			<path style="fill:#918C87;" d="M7748.888,7091.059l-25.335,113.187c0,0,31.056,33.479,95.616,24.711
				c64.562-8.768,91.531-35.07,91.531-35.07l-48.218-108.408"/>
			<circle style="fill:#301502;" cx="7808.716" cy="7041.839" r="108.311"/>
		</g>
		<g id="r1s4_2_">
			<path style="fill:#161616;" d="M7702.403,6797.123c0,0-1.047,0.014-2.91,0.138c-13.355,0.887-68.62,7.422-80.542,55.018
				c-13.584,54.236-13.584,66.187-13.584,66.187s0.97,10.112,37.844,34.012c36.874,23.901,46.577,23.901,46.577,23.901l4.853-81.815
				c0,0-3.882,0.919-17.466-0.919c-13.587-1.838-20.378-11.95-20.378-11.95s8.732-7.354,20.378-7.354
				c11.644,0,19.406,4.597,23.289,9.193c3.881,4.597,0,59.752,0,59.752s4.852,1.838,7.764,2.758
				c2.908,0.919,7.762-2.758,7.762-2.758l-3.881-60.671c0,0,6.791-9.192,10.674-9.192c3.881,0,8.732,3.677,8.732,3.677
				s-2.91,3.676-6.793,5.515c-3.881,1.839-7.764,2.98-7.764,2.98l2.912,85.269c0,0,35.904-37.689,36.875-47.801
				c0.969-10.112,2.91-102.038-27.172-115.827c0,0-10.674-8.411-20.377-9.193
				C7699.493,6797.261,7702.403,6797.123,7702.403,6797.123z"/>
			<path style="fill:#19140B;" d="M7707.608,7285.432c0,0,8.057-19.604,13.184-24.949c5.127-5.348,20.289-6.238,20.289-6.238
				l-5.641,26.732c0,0,3.227,5.346,5.641,18.713c2.416,13.367,3.881,8.912-4.176,53.463c-8.057,44.557-24.17,107.822-24.17,107.822
				s-11.719,5.346-16.846,9.801s-16.113,10.693-16.113,10.693s-5.859-90.889,0-132.771c5.859-41.879,5.127-55.244,5.127-55.244
				L7707.608,7285.432z"/>
			<path style="fill:#2D2515;" d="M7648.674,7299.689c0,0,8.057-19.604,13.184-24.949c5.128-5.348,20.29-6.238,20.29-6.238
				l-5.641,26.732c0,0,3.227,5.348,5.641,18.713s3.88,8.91-4.177,53.463c-8.057,44.555-24.17,107.82-24.17,107.82
				s-11.719,5.348-16.846,9.803s-16.113,10.693-16.113,10.693s-5.859-90.891,0-132.771c5.859-41.879,5.127-55.246,5.127-55.246
				L7648.674,7299.689z"/>
			<path style="fill:#AAA5A0;" d="M7620.079,7108.553l-26.296,117.486c0,0,32.234,34.75,99.247,25.648
				c67.014-9.1,95.008-36.402,95.008-36.402l-50.049-112.523"/>
			<path style="fill:#421C02;" d="M7794.604,7057.465c0-62.091-50.334-112.425-112.424-112.425
				c-62.091,0-112.425,50.334-112.425,112.425c0,62.088,50.334,112.424,112.425,112.424
				C7744.271,7169.889,7794.604,7119.553,7794.604,7057.465z"/>
		</g>
		<g id="r1s3_2_">
			<path style="fill:#282828;" d="M7564.514,6799.502c0,0-1.055,0.014-2.936,0.139c-13.473,0.895-69.223,7.488-81.249,55.501
				c-13.704,54.713-13.704,66.768-13.704,66.768s0.979,10.201,38.176,34.311c37.199,24.111,46.987,24.111,46.987,24.111
				l4.896-82.534c0,0-3.916,0.928-17.621-0.927c-13.705-1.854-20.557-12.055-20.557-12.055s8.811-7.419,20.557-7.419
				c11.747,0,19.578,4.637,23.494,9.274c3.915,4.637,0,60.276,0,60.276s4.895,1.855,7.831,2.782
				c2.937,0.928,7.831-2.782,7.831-2.782l-3.916-61.204c0,0,6.853-9.273,10.769-9.273c3.915,0,8.81,3.709,8.81,3.709
				s-2.937,3.708-6.852,5.563c-3.916,1.855-7.834,3.007-7.834,3.007l2.939,86.018c0,0,36.219-38.021,37.197-48.221
				s2.938-102.935-27.409-116.845c0,0-10.769-8.485-20.556-9.273C7561.578,6799.641,7564.514,6799.502,7564.514,6799.502z"/>
			<path style="fill:#2D2412;" d="M7569.764,7292.102c0,0,8.129-19.775,13.3-25.168c5.173-5.395,20.468-6.293,20.468-6.293
				l-5.69,26.967c0,0,3.255,5.393,5.69,18.877c2.438,13.484,3.914,8.99-4.213,53.934c-8.127,44.947-24.383,108.768-24.383,108.768
				s-11.82,5.395-16.992,9.889s-16.256,10.787-16.256,10.787s-5.91-91.688,0-133.938c5.911-42.248,5.172-55.73,5.172-55.73
				L7569.764,7292.102z"/>
			<path style="fill:#42371E;" d="M7510.312,7306.484c0,0,8.127-19.775,13.299-25.168c5.173-5.395,20.469-6.293,20.469-6.293
				l-5.691,26.967c0,0,3.256,5.395,5.691,18.877s3.914,8.988-4.213,53.934c-8.128,44.945-24.383,108.768-24.383,108.768
				s-11.821,5.395-16.994,9.889c-5.171,4.494-16.254,10.787-16.254,10.787s-5.911-91.689,0-133.938
				c5.91-42.248,5.172-55.732,5.172-55.732L7510.312,7306.484z"/>
			<path style="fill:#C9C1B9;" d="M7481.467,7113.668l-26.527,118.519c0,0,32.518,35.055,100.119,25.873
				c67.604-9.18,95.842-36.723,95.842-36.723l-50.488-113.511"/>
			<circle style="fill:#562300;" cx="7544.113" cy="7062.131" r="113.412"/>
		</g>
		<g id="r1s2_1_">
			<path style="fill:#383838;" d="M7426.123,6804.935c0,0-1.104,0.015-3.072,0.146c-14.098,0.936-72.43,7.835-85.014,58.073
				c-14.339,57.248-14.339,69.862-14.339,69.862s1.024,10.673,39.945,35.901c38.922,25.229,49.164,25.229,49.164,25.229
				l5.122-86.358c0,0-4.098,0.971-18.438-0.97c-14.34-1.94-21.509-12.614-21.509-12.614s9.218-7.763,21.509-7.763
				s20.486,4.852,24.583,9.704s0,63.069,0,63.069s5.121,1.941,8.194,2.911c3.072,0.971,8.193-2.911,8.193-2.911l-4.098-64.04
				c0,0,7.17-9.703,11.268-9.703c4.097,0,9.218,3.881,9.218,3.881s-3.072,3.88-7.169,5.821c-4.098,1.941-8.196,3.146-8.196,3.146
				l3.075,90.003c0,0,37.896-39.782,38.921-50.456s3.073-107.704-28.679-122.259c0,0-11.268-8.878-21.51-9.703
				C7423.051,6805.08,7426.123,6804.935,7426.123,6804.935z"/>
			<path style="fill:#44371B;" d="M7431.617,7320.357c0,0,8.504-20.691,13.915-26.334c5.412-5.645,21.417-6.584,21.417-6.584
				l-5.955,28.217c0,0,3.406,5.643,5.955,19.752c2.549,14.107,4.096,9.404-4.408,56.432
				c-8.504,47.029-25.513,113.809-25.513,113.809s-12.369,5.643-17.78,10.346c-5.412,4.703-17.009,11.287-17.009,11.287
				s-6.185-95.938,0-140.143c6.185-44.207,5.411-58.314,5.411-58.314L7431.617,7320.357z"/>
			<path style="fill:#594B27;" d="M7369.41,7335.408c0,0,8.504-20.693,13.916-26.336c5.412-5.645,21.416-6.584,21.416-6.584
				l-5.955,28.217c0,0,3.406,5.643,5.955,19.752c2.549,14.107,4.096,9.404-4.408,56.432
				c-8.504,47.029-25.512,113.809-25.512,113.809s-12.369,5.643-17.781,10.346s-17.008,11.287-17.008,11.287
				s-6.186-95.938,0-140.143c6.184-44.207,5.411-58.314,5.411-58.314L7369.41,7335.408z"/>
			<path style="fill:#E2D8CC;" d="M7339.228,7133.659l-27.757,124.009c0,0,34.025,36.68,104.76,27.072
				c70.734-9.605,100.281-38.426,100.281-38.426l-52.826-118.769"/>
			<circle style="fill:#702D00;" cx="7404.776" cy="7079.733" r="118.667"/>
		</g>
		<g id="r1s1_1_">
			<path style="fill:#444444;" d="M7274.758,6803.425c0,0-1.176,0.016-3.267,0.155c-14.989,0.995-77.008,8.33-90.387,61.743
				c-15.246,60.866-15.246,74.277-15.246,74.277s1.089,11.348,42.47,38.17c41.382,26.823,52.271,26.823,52.271,26.823l5.445-91.815
				c0,0-4.355,1.032-19.602-1.032c-15.246-2.063-22.868-13.411-22.868-13.411s9.801-8.253,22.868-8.253
				c13.068,0,21.78,5.158,26.137,10.316c4.355,5.158,0,67.056,0,67.056s5.444,2.063,8.711,3.095
				c3.268,1.032,8.712-3.095,8.712-3.095l-4.356-68.087c0,0,7.623-10.316,11.98-10.316c4.355,0,9.8,4.126,9.8,4.126
				s-3.267,4.126-7.622,6.189c-4.357,2.063-8.715,3.345-8.715,3.345l3.27,95.692c0,0,40.292-42.297,41.381-53.645
				c1.09-11.348,3.268-114.511-30.491-129.985c0,0-11.979-9.439-22.868-10.316
				C7271.491,6803.58,7274.758,6803.425,7274.758,6803.425z"/>
			<path style="fill:#544520;" d="M7280.598,7351.424c0,0,9.042-22,14.795-28c5.754-6,22.771-7,22.771-7l-6.331,30
				c0,0,3.621,6,6.331,21s4.354,10-4.687,60c-9.042,50-27.125,121-27.125,121s-13.15,6-18.904,11s-18.084,12-18.084,12
				s-6.574-102,0-149c6.576-47,5.754-62,5.754-62L7280.598,7351.424z"/>
			<path style="fill:#705F2F;" d="M7214.46,7367.424c0,0,9.042-22,14.795-28c5.754-6,22.771-7,22.771-7l-6.332,30
				c0,0,3.621,6,6.332,21c2.71,15,4.354,10-4.688,60s-27.125,121-27.125,121s-13.15,6-18.904,11c-5.753,5-18.083,12-18.083,12
				s-6.575-102,0-149c6.576-47,5.754-62,5.754-62L7214.46,7367.424z"/>
			<path style="fill:#FFEFD7;" d="M7182.37,7152.924l-29.511,131.847c0,0,36.175,38.996,111.379,28.783
				c75.205-10.213,106.621-40.854,106.621-40.854l-56.166-126.277"/>
			<circle style="fill:#933B00;" cx="7252.062" cy="7095.59" r="126.167"/>
		</g>
		<g>
			<path style="fill:#E8D75D;" d="M7314.664,6806.834c0,0,27.654-25.979,51.654-33.979s61.484-13.999,61.484-13.999
				s-20.818-37.335-44.818-54.001s-98-43.333-161.333-22.667s-96.667,59.333-111.333,90.667s-6.667,86,0,103.333
				s20.667,42.667,20.667,42.667l16.333,13.333c0,0,11-64.667,24.333-86.667s33.788-29.035,33.788-29.035l104.879-6.648"/>
			<path style="fill:#604A24;" d="M7274.436,6835.462c0,0-12.174-10.93-23.168-16.499s-26.807,0-26.807,0l-19.021-2.475
				c0,0,26.998-21.095,59.996-20.56c32.999,0.536,51.971,12.401,51.971,12.401l-26.422,27.132H7274.436z"/>
		</g>
	</g>
</g>
<g id="Layer_7">
</g>
</svg>
