<?xml version="1.0" encoding="iso-8859-1"?>
<!-- Generator: Adobe Illustrator 16.0.0, SVG Export Plug-In . SVG Version: 6.00 Build 0)  -->
<!DOCTYPE svg PUBLIC "-//W3C//DTD SVG 1.1//EN" "http://www.w3.org/Graphics/SVG/1.1/DTD/svg11.dtd">
<svg version="1.1" xmlns="http://www.w3.org/2000/svg" xmlns:xlink="http://www.w3.org/1999/xlink" x="0px" y="0px" width="14400px"
	 height="14400px" viewBox="0 0 14400 14400" style="enable-background:new 0 0 14400 14400;" xml:space="preserve">
<g id="Layer_1">
</g>
<g id="Layer_2" style="display:none;">
	
		<rect x="6554.5" y="6799.5" style="display:inline;fill:#E0C9A2;stroke:#000000;stroke-miterlimit:10;" width="1259" height="834"/>
</g>
<g id="Layer_3" style="display:none;">
	<path style="fill:#FFF9EE;" d="M7166.5,6783.5h680l38,884c0,0-1329-1-1327-5s-12-204-12-204l610-663L7166.5,6783.5z"/>
	<polygon style="fill:#D9F2FF;" points="6496.5,7512.5 6514.5,7720.5 7948.5,7746.5 7894.5,6742.5 7270.5,6746.5 	"/>
	<polygon style="fill:#7EB6CE;" points="6460.5,7608.5 7518.5,6702.5 8012.5,6724.5 8036.5,7816.5 6484.5,7774.5 	"/>
	<polygon style="fill:#216E89;" points="6438.5,7774.5 7708.5,6676.5 8234.5,6690.5 8152.5,7902.5 6444.5,7848.5 	"/>
	<polygon style="fill:#0B2751;" points="6650.5,7920.5 7886.5,6596.5 8322.5,6646.5 8218.5,8146.5 	"/>
</g>
<g id="Layer_4" style="display:none;">
	<path style="display:inline;fill:#057391;" d="M6424.5,6966.678c0,0,58,50,168-4s210-110,276-96s104,44,126,80s234,116,428,70
		s378-102,440-98s-36,228-36,228l-1338-10"/>
</g>
<g id="Layer_5">
	<linearGradient id="SVGID_1_" gradientUnits="userSpaceOnUse" x1="7038.5967" y1="7598.291" x2="7071.1001" y2="7226.7783">
		<stop  offset="0.5686" style="stop-color:#00B8FF"/>
		<stop  offset="1" style="stop-color:#F2F2F2"/>
	</linearGradient>
	<path style="display:none;fill:url(#SVGID_1_);" d="M6537.5,7398.5c0,0,71-24,164-13s176,58,306,50s184-34,218-96s8-70-5-102
		s-59-81-27-77s71,3,80-17s13-49,50-49s57,16,65,20s20-9,27-13s52-3,67,8s16,30,28,33s39,7,46,11s13,10,6,20s-25,27-12,24s14-9,20-8
		s15,5,5,14s-17,17-10,18s9-4,15,0s11,20,5,34s-197,350-197,350l-857,4L6537.5,7398.5z"/>
	<path style="fill:#332C27;" d="M7240.5,7603.5c0,0,49-102,51-151s20-71,32-65s14-8,16-20s12-92,29-93s14-27,53-39s125-3,146,2
		s147,76,175,84s64,16,66,36s10,25,17,38s0,176,0,176l-8,79l-591,25L7240.5,7603.5z"/>
</g>
</svg>
