<?xml version="1.0" encoding="iso-8859-1"?>
<!-- Generator: Adobe Illustrator 16.0.0, SVG Export Plug-In . SVG Version: 6.00 Build 0)  -->
<!DOCTYPE svg PUBLIC "-//W3C//DTD SVG 1.1//EN" "http://www.w3.org/Graphics/SVG/1.1/DTD/svg11.dtd">
<svg version="1.1" xmlns="http://www.w3.org/2000/svg" xmlns:xlink="http://www.w3.org/1999/xlink" x="0px" y="0px" width="1280px"
	 height="800px" viewBox="0 0 1280 800" style="enable-background:new 0 0 1280 800;" xml:space="preserve">
<g id="Layer_1">
</g>
<g id="Layer_2" style="display:none;">
	<rect x="-5" style="display:inline;fill:#E0C9A2;stroke:#000000;stroke-miterlimit:10;" width="1259" height="834"/>
</g>
<g id="Layer_3" style="display:none;">
	<path style="fill:#FFF9EE;" d="M607-16h680l38,884c0,0-1329-1-1327-5s-12-204-12-204L596-4L607-16z"/>
	<polygon style="fill:#D9F2FF;" points="-63,713 -45,921 1389,947 1335,-57 711,-53 	"/>
	<polygon style="fill:#7EB6CE;" points="-99,809 959,-97 1453,-75 1477,1017 -75,975 	"/>
	<polygon style="fill:#216E89;" points="-121,975 1149,-123 1675,-109 1593,1103 -115,1049 	"/>
	<polygon style="fill:#0B2751;" points="91,1121 1327,-203 1763,-153 1659,1347 	"/>
</g>
<g id="Layer_4" style="display:none;">
	<path style="display:inline;fill:#057391;" d="M-135,167.178c0,0,58,50,168-4s210-110,276-96s104,44,126,80s234,116,428,70
		s378-102,440-98s-36,228-36,228l-1338-10"/>
</g>
<g id="Layer_5">
	<linearGradient id="SVGID_1_" gradientUnits="userSpaceOnUse" x1="479.0967" y1="798.791" x2="511.5999" y2="427.2781">
		<stop  offset="0.5686" style="stop-color:#00B8FF"/>
		<stop  offset="1" style="stop-color:#F2F2F2"/>
	</linearGradient>
	<path style="fill:url(#SVGID_1_);" d="M-22,599c0,0,71-24,164-13s176,58,306,50s184-34,218-96s8-70-5-102s-59-81-27-77s71,3,80-17
		s13-49,50-49s57,16,65,20s20-9,27-13s52-3,67,8s16,30,28,33s39,7,46,11s13,10,6,20s-25,27-12,24s14-9,20-8s15,5,5,14s-17,17-10,18
		s9-4,15,0s11,20,5,34S829,806,829,806l-857,4L-22,599z"/>
	<path style="fill:#332C27;" d="M718,813c0,0,49-102,51-151s20-71,32-65s14-8,16-20s12-92,29-93s14-27,53-39s125-3,146,2
		s147,76,175,84s64,16,66,36s10,25,17,38s0,176,0,176l-8,79l-591,25L718,813z"/>
</g>
</svg>
