<?xml version="1.0" encoding="utf-8"?>
<!-- Generator: Adobe Illustrator 16.0.0, SVG Export Plug-In . SVG Version: 6.00 Build 0)  -->
<!DOCTYPE svg PUBLIC "-//W3C//DTD SVG 1.1//EN" "http://www.w3.org/Graphics/SVG/1.1/DTD/svg11.dtd">
<svg version="1.1" xmlns="http://www.w3.org/2000/svg" xmlns:xlink="http://www.w3.org/1999/xlink" x="0px" y="0px" width="1280px"
	 height="800px" viewBox="0 0 1280 800" enable-background="new 0 0 1280 800" xml:space="preserve">
<g id="Layer_1">
</g>
<g id="Layer_2" display="none">
	<rect x="-5" display="inline" fill="#E0C9A2" stroke="#000000" stroke-miterlimit="10" width="1259" height="834"/>
</g>
<g id="Layer_3">
	<path fill="#FFF9EE" d="M596-4L-14,659c0,0,14,200,12,204s1327,5,1327,5l-38-884H607L596-4z"/>
	<polygon display="none" fill="#D9F2FF" points="-63,713 -45,921 1389,947 1335,-57 711,-53 	"/>
	<polygon display="none" fill="#7EB6CE" points="-99,809 959,-97 1453,-75 1477,1017 -75,975 	"/>
	<polygon display="none" fill="#216E89" points="-121,975 1149,-123 1675,-109 1593,1103 -115,1049 	"/>
	<polygon display="none" fill="#0B2751" points="91,1121 1327,-203 1763,-153 1659,1347 	"/>
</g>
<g id="Layer_4">
</g>
</svg>
