<?xml version="1.0" encoding="iso-8859-1"?>
<!-- Generator: Adobe Illustrator 16.0.0, SVG Export Plug-In . SVG Version: 6.00 Build 0)  -->
<!DOCTYPE svg PUBLIC "-//W3C//DTD SVG 1.1//EN" "http://www.w3.org/Graphics/SVG/1.1/DTD/svg11.dtd">
<svg version="1.1" xmlns="http://www.w3.org/2000/svg" xmlns:xlink="http://www.w3.org/1999/xlink" x="0px" y="0px" width="14400px"
	 height="14400px" viewBox="0 0 14400 14400" style="enable-background:new 0 0 14400 14400;" xml:space="preserve">
<g id="Layer_1">
</g>
<g id="Layer_2" style="display:none;">
	
		<rect x="6554.5" y="6799.5" style="display:inline;fill:#E0C9A2;stroke:#000000;stroke-miterlimit:10;" width="1259" height="834"/>
</g>
<g id="Layer_3">
	<path style="display:none;fill:#FFF9EE;" d="M7166.5,6783.5h680l38,884c0,0-1329-1-1327-5s-12-204-12-204l610-663L7166.5,6783.5z"
		/>
	<polygon style="display:none;fill:#D9F2FF;" points="6496.5,7512.5 6514.5,7720.5 7948.5,7746.5 7894.5,6742.5 7270.5,6746.5 	"/>
	<polygon style="display:none;fill:#7EB6CE;" points="6460.5,7608.5 7518.5,6702.5 8012.5,6724.5 8036.5,7816.5 6484.5,7774.5 	"/>
	<polygon style="display:none;fill:#216E89;" points="6438.5,7774.5 7708.5,6676.5 8234.5,6690.5 8152.5,7902.5 6444.5,7848.5 	"/>
	<polygon style="display:none;fill:#0B2751;" points="6650.5,7920.5 7886.5,6596.5 8322.5,6646.5 8218.5,8146.5 	"/>
</g>
<g id="Layer_4">
	<path style="fill:#057391;" d="M6440.5,7486.5c0,0,58,50,168-4s210-110,276-96s104,44,126,80s234,116,428,70s378-102,440-98
		s-36,228-36,228l-1338-10"/>
</g>
</svg>
